<mxfile host="app.diagrams.net" agent="Mozilla/5.0 (X11; Ubuntu; Linux x86_64; rv:136.0) Gecko/20100101 Firefox/136.0" version="28.0.3" pages="2">
  <diagram id="prtHgNgQTEPvFCAcTncT" name="Page-1">
    <mxGraphModel dx="2646" dy="1669" grid="1" gridSize="10" guides="1" tooltips="1" connect="1" arrows="1" fold="1" page="0" pageScale="1" pageWidth="827" pageHeight="1169" math="0" shadow="0">
      <root>
        <mxCell id="0" />
        <mxCell id="1" parent="0" />
        <mxCell id="w0o_VN7VHRVcwuZl0_9_-28" value="" style="rounded=1;whiteSpace=wrap;html=1;" parent="1" vertex="1">
          <mxGeometry x="-110" y="-75" width="1350" height="390" as="geometry" />
        </mxCell>
        <mxCell id="w0o_VN7VHRVcwuZl0_9_-64" value="" style="rounded=1;whiteSpace=wrap;html=1;" parent="1" vertex="1">
          <mxGeometry x="-131" y="324" width="1457" height="445" as="geometry" />
        </mxCell>
        <mxCell id="w0o_VN7VHRVcwuZl0_9_-26" style="edgeStyle=orthogonalEdgeStyle;rounded=0;orthogonalLoop=1;jettySize=auto;html=1;entryX=0;entryY=0.5;entryDx=0;entryDy=0;" parent="1" source="w0o_VN7VHRVcwuZl0_9_-22" target="w0o_VN7VHRVcwuZl0_9_-25" edge="1">
          <mxGeometry relative="1" as="geometry" />
        </mxCell>
        <mxCell id="DDQxApeuOzSpBcFLMcEA-15" style="edgeStyle=orthogonalEdgeStyle;rounded=0;orthogonalLoop=1;jettySize=auto;html=1;entryX=0.5;entryY=0;entryDx=0;entryDy=0;" edge="1" parent="1" source="w0o_VN7VHRVcwuZl0_9_-22" target="w0o_VN7VHRVcwuZl0_9_-39">
          <mxGeometry relative="1" as="geometry" />
        </mxCell>
        <mxCell id="w0o_VN7VHRVcwuZl0_9_-22" value="Search Service" style="rounded=1;whiteSpace=wrap;html=1;" parent="1" vertex="1">
          <mxGeometry x="171" y="413" width="120" height="60" as="geometry" />
        </mxCell>
        <mxCell id="w0o_VN7VHRVcwuZl0_9_-80" style="edgeStyle=orthogonalEdgeStyle;rounded=0;orthogonalLoop=1;jettySize=auto;html=1;" parent="1" source="w0o_VN7VHRVcwuZl0_9_-23" target="w0o_VN7VHRVcwuZl0_9_-76" edge="1">
          <mxGeometry relative="1" as="geometry">
            <Array as="points">
              <mxPoint x="29" y="445" />
              <mxPoint x="29" y="419" />
            </Array>
          </mxGeometry>
        </mxCell>
        <mxCell id="w0o_VN7VHRVcwuZl0_9_-81" style="edgeStyle=orthogonalEdgeStyle;rounded=0;orthogonalLoop=1;jettySize=auto;html=1;" parent="1" source="w0o_VN7VHRVcwuZl0_9_-23" target="w0o_VN7VHRVcwuZl0_9_-79" edge="1">
          <mxGeometry relative="1" as="geometry">
            <Array as="points">
              <mxPoint x="29" y="445" />
              <mxPoint x="29" y="468" />
            </Array>
          </mxGeometry>
        </mxCell>
        <mxCell id="w0o_VN7VHRVcwuZl0_9_-23" value="User Query" style="ellipse;whiteSpace=wrap;html=1;" parent="1" vertex="1">
          <mxGeometry x="-87" y="420" width="110" height="50" as="geometry" />
        </mxCell>
        <mxCell id="w0o_VN7VHRVcwuZl0_9_-31" style="edgeStyle=orthogonalEdgeStyle;rounded=0;orthogonalLoop=1;jettySize=auto;html=1;entryX=0;entryY=0.5;entryDx=0;entryDy=0;" parent="1" source="w0o_VN7VHRVcwuZl0_9_-25" target="w0o_VN7VHRVcwuZl0_9_-30" edge="1">
          <mxGeometry relative="1" as="geometry" />
        </mxCell>
        <mxCell id="w0o_VN7VHRVcwuZl0_9_-25" value="Embedding Generation" style="rounded=1;whiteSpace=wrap;html=1;" parent="1" vertex="1">
          <mxGeometry x="331" y="413" width="120" height="60" as="geometry" />
        </mxCell>
        <mxCell id="w0o_VN7VHRVcwuZl0_9_-32" style="edgeStyle=orthogonalEdgeStyle;rounded=0;orthogonalLoop=1;jettySize=auto;html=1;entryX=0.298;entryY=0.996;entryDx=0;entryDy=0;entryPerimeter=0;" parent="1" source="w0o_VN7VHRVcwuZl0_9_-30" target="w0o_VN7VHRVcwuZl0_9_-6" edge="1">
          <mxGeometry relative="1" as="geometry" />
        </mxCell>
        <mxCell id="w0o_VN7VHRVcwuZl0_9_-30" value="Database Query" style="ellipse;whiteSpace=wrap;html=1;aspect=fixed;" parent="1" vertex="1">
          <mxGeometry x="511" y="403" width="80" height="80" as="geometry" />
        </mxCell>
        <mxCell id="DDQxApeuOzSpBcFLMcEA-11" style="edgeStyle=orthogonalEdgeStyle;rounded=0;orthogonalLoop=1;jettySize=auto;html=1;entryX=1;entryY=0.5;entryDx=0;entryDy=0;" edge="1" parent="1" source="w0o_VN7VHRVcwuZl0_9_-33" target="DDQxApeuOzSpBcFLMcEA-10">
          <mxGeometry relative="1" as="geometry" />
        </mxCell>
        <mxCell id="w0o_VN7VHRVcwuZl0_9_-33" value="&lt;div&gt;Relevant Pages and Files&lt;/div&gt;" style="ellipse;whiteSpace=wrap;html=1;aspect=fixed;" parent="1" vertex="1">
          <mxGeometry x="511" y="514.5" width="80" height="80" as="geometry" />
        </mxCell>
        <mxCell id="DDQxApeuOzSpBcFLMcEA-17" style="edgeStyle=orthogonalEdgeStyle;rounded=0;orthogonalLoop=1;jettySize=auto;html=1;entryX=0.5;entryY=0;entryDx=0;entryDy=0;" edge="1" parent="1" source="w0o_VN7VHRVcwuZl0_9_-39" target="DDQxApeuOzSpBcFLMcEA-16">
          <mxGeometry relative="1" as="geometry" />
        </mxCell>
        <mxCell id="DDQxApeuOzSpBcFLMcEA-21" style="edgeStyle=orthogonalEdgeStyle;rounded=0;orthogonalLoop=1;jettySize=auto;html=1;entryX=1;entryY=0.5;entryDx=0;entryDy=0;" edge="1" parent="1" source="w0o_VN7VHRVcwuZl0_9_-39" target="w0o_VN7VHRVcwuZl0_9_-68">
          <mxGeometry relative="1" as="geometry" />
        </mxCell>
        <mxCell id="w0o_VN7VHRVcwuZl0_9_-39" value="Agent Call" style="ellipse;whiteSpace=wrap;html=1;aspect=fixed;" parent="1" vertex="1">
          <mxGeometry x="191" y="514.5" width="80" height="80" as="geometry" />
        </mxCell>
        <mxCell id="w0o_VN7VHRVcwuZl0_9_-42" value="Search View" style="rounded=1;whiteSpace=wrap;html=1;" parent="1" vertex="1">
          <mxGeometry x="-92" y="524.5" width="120" height="60" as="geometry" />
        </mxCell>
        <mxCell id="w0o_VN7VHRVcwuZl0_9_-67" value="&lt;h1 style=&quot;margin-top: 0px;&quot;&gt;&lt;font style=&quot;font-size: 48px;&quot;&gt;Retrieval Augmented Generation Based Agentic Chat&lt;/font&gt;&lt;/h1&gt;&lt;div&gt;&lt;br&gt;&lt;/div&gt;&lt;div&gt;&lt;br&gt;&lt;/div&gt;" style="text;html=1;whiteSpace=wrap;overflow=hidden;rounded=0;movable=1;resizable=1;rotatable=1;deletable=1;editable=1;locked=0;connectable=1;" parent="1" vertex="1">
          <mxGeometry x="-87" y="-191" width="1248" height="112" as="geometry" />
        </mxCell>
        <mxCell id="w0o_VN7VHRVcwuZl0_9_-70" style="edgeStyle=orthogonalEdgeStyle;rounded=0;orthogonalLoop=1;jettySize=auto;html=1;" parent="1" source="w0o_VN7VHRVcwuZl0_9_-68" target="w0o_VN7VHRVcwuZl0_9_-42" edge="1">
          <mxGeometry relative="1" as="geometry" />
        </mxCell>
        <mxCell id="DDQxApeuOzSpBcFLMcEA-24" style="edgeStyle=orthogonalEdgeStyle;rounded=0;orthogonalLoop=1;jettySize=auto;html=1;" edge="1" parent="1" source="w0o_VN7VHRVcwuZl0_9_-68" target="DDQxApeuOzSpBcFLMcEA-22">
          <mxGeometry relative="1" as="geometry">
            <Array as="points">
              <mxPoint x="101" y="615" />
              <mxPoint x="101" y="615" />
            </Array>
          </mxGeometry>
        </mxCell>
        <mxCell id="w0o_VN7VHRVcwuZl0_9_-68" value="Summary" style="ellipse;whiteSpace=wrap;html=1;aspect=fixed;" parent="1" vertex="1">
          <mxGeometry x="70" y="514.5" width="80" height="80" as="geometry" />
        </mxCell>
        <mxCell id="w0o_VN7VHRVcwuZl0_9_-82" style="edgeStyle=orthogonalEdgeStyle;rounded=0;orthogonalLoop=1;jettySize=auto;html=1;" parent="1" source="w0o_VN7VHRVcwuZl0_9_-76" target="w0o_VN7VHRVcwuZl0_9_-22" edge="1">
          <mxGeometry relative="1" as="geometry">
            <Array as="points">
              <mxPoint x="155" y="419" />
              <mxPoint x="155" y="443" />
            </Array>
          </mxGeometry>
        </mxCell>
        <mxCell id="w0o_VN7VHRVcwuZl0_9_-76" value="Autocomplete" style="rounded=1;whiteSpace=wrap;html=1;" parent="1" vertex="1">
          <mxGeometry x="46" y="404" width="98" height="30" as="geometry" />
        </mxCell>
        <mxCell id="w0o_VN7VHRVcwuZl0_9_-83" style="edgeStyle=orthogonalEdgeStyle;rounded=0;orthogonalLoop=1;jettySize=auto;html=1;entryX=0;entryY=0.5;entryDx=0;entryDy=0;" parent="1" source="w0o_VN7VHRVcwuZl0_9_-79" target="w0o_VN7VHRVcwuZl0_9_-22" edge="1">
          <mxGeometry relative="1" as="geometry">
            <Array as="points">
              <mxPoint x="155" y="468" />
              <mxPoint x="155" y="443" />
            </Array>
          </mxGeometry>
        </mxCell>
        <mxCell id="w0o_VN7VHRVcwuZl0_9_-79" value="Categorization" style="rounded=1;whiteSpace=wrap;html=1;" parent="1" vertex="1">
          <mxGeometry x="46" y="453" width="98" height="30" as="geometry" />
        </mxCell>
        <mxCell id="DDQxApeuOzSpBcFLMcEA-6" style="edgeStyle=orthogonalEdgeStyle;rounded=0;orthogonalLoop=1;jettySize=auto;html=1;entryX=1;entryY=0.5;entryDx=0;entryDy=0;" edge="1" parent="1" source="w0o_VN7VHRVcwuZl0_9_-6" target="w0o_VN7VHRVcwuZl0_9_-33">
          <mxGeometry relative="1" as="geometry">
            <Array as="points">
              <mxPoint x="700" y="555" />
            </Array>
          </mxGeometry>
        </mxCell>
        <mxCell id="DDQxApeuOzSpBcFLMcEA-14" style="edgeStyle=orthogonalEdgeStyle;rounded=0;orthogonalLoop=1;jettySize=auto;html=1;entryX=0.34;entryY=1.003;entryDx=0;entryDy=0;entryPerimeter=0;" edge="1" parent="1" source="DDQxApeuOzSpBcFLMcEA-7" target="DDQxApeuOzSpBcFLMcEA-10">
          <mxGeometry relative="1" as="geometry">
            <Array as="points">
              <mxPoint x="430" y="619" />
            </Array>
          </mxGeometry>
        </mxCell>
        <mxCell id="DDQxApeuOzSpBcFLMcEA-7" value="Query Cache" style="shape=cylinder3;whiteSpace=wrap;html=1;boundedLbl=1;backgroundOutline=1;size=15;" vertex="1" parent="1">
          <mxGeometry x="393" y="644" width="100" height="59" as="geometry" />
        </mxCell>
        <mxCell id="DDQxApeuOzSpBcFLMcEA-12" style="edgeStyle=orthogonalEdgeStyle;rounded=0;orthogonalLoop=1;jettySize=auto;html=1;" edge="1" parent="1" source="DDQxApeuOzSpBcFLMcEA-10" target="DDQxApeuOzSpBcFLMcEA-7">
          <mxGeometry relative="1" as="geometry">
            <Array as="points">
              <mxPoint x="456" y="619" />
              <mxPoint x="456" y="619" />
            </Array>
          </mxGeometry>
        </mxCell>
        <mxCell id="DDQxApeuOzSpBcFLMcEA-19" style="edgeStyle=orthogonalEdgeStyle;rounded=0;orthogonalLoop=1;jettySize=auto;html=1;entryX=1;entryY=0.5;entryDx=0;entryDy=0;" edge="1" parent="1" source="DDQxApeuOzSpBcFLMcEA-10" target="DDQxApeuOzSpBcFLMcEA-18">
          <mxGeometry relative="1" as="geometry" />
        </mxCell>
        <mxCell id="DDQxApeuOzSpBcFLMcEA-10" value="Top_K Comparison" style="ellipse;whiteSpace=wrap;html=1;aspect=fixed;" vertex="1" parent="1">
          <mxGeometry x="403" y="514.5" width="80" height="80" as="geometry" />
        </mxCell>
        <mxCell id="DDQxApeuOzSpBcFLMcEA-16" value="HRO Agent" style="ellipse;whiteSpace=wrap;html=1;aspect=fixed;" vertex="1" parent="1">
          <mxGeometry x="191" y="637" width="80" height="80" as="geometry" />
        </mxCell>
        <mxCell id="DDQxApeuOzSpBcFLMcEA-20" style="edgeStyle=orthogonalEdgeStyle;rounded=0;orthogonalLoop=1;jettySize=auto;html=1;entryX=1;entryY=0.5;entryDx=0;entryDy=0;" edge="1" parent="1" source="DDQxApeuOzSpBcFLMcEA-18" target="w0o_VN7VHRVcwuZl0_9_-39">
          <mxGeometry relative="1" as="geometry" />
        </mxCell>
        <mxCell id="DDQxApeuOzSpBcFLMcEA-18" value="Ranking" style="ellipse;whiteSpace=wrap;html=1;aspect=fixed;" vertex="1" parent="1">
          <mxGeometry x="297" y="514.5" width="80" height="80" as="geometry" />
        </mxCell>
        <mxCell id="DDQxApeuOzSpBcFLMcEA-23" style="edgeStyle=orthogonalEdgeStyle;rounded=0;orthogonalLoop=1;jettySize=auto;html=1;" edge="1" parent="1" source="DDQxApeuOzSpBcFLMcEA-22" target="w0o_VN7VHRVcwuZl0_9_-68">
          <mxGeometry relative="1" as="geometry">
            <Array as="points">
              <mxPoint x="118" y="617" />
              <mxPoint x="118" y="617" />
            </Array>
          </mxGeometry>
        </mxCell>
        <mxCell id="DDQxApeuOzSpBcFLMcEA-22" value="&lt;div&gt;OpenAI&lt;/div&gt;&lt;div&gt;Summary&lt;/div&gt;&lt;div&gt;(Conditional)&lt;/div&gt;" style="ellipse;whiteSpace=wrap;html=1;aspect=fixed;" vertex="1" parent="1">
          <mxGeometry x="70" y="637" width="80" height="80" as="geometry" />
        </mxCell>
        <mxCell id="DDQxApeuOzSpBcFLMcEA-46" value="&lt;h1 style=&quot;margin-top: 0px;&quot;&gt;Search Service&lt;/h1&gt;&lt;h1 style=&quot;margin-top: 0px;&quot;&gt;&lt;font style=&quot;font-size: 12px;&quot;&gt;&lt;span style=&quot;font-family: Arial, sans-serif; color: rgb(0, 0, 0); background-color: transparent; font-weight: 400; font-style: normal; font-variant: normal; text-decoration: none; vertical-align: baseline; white-space: pre-wrap;&quot;&gt;Context Aware Summary Generation&lt;/span&gt;&lt;/font&gt;&lt;/h1&gt;&lt;h1 style=&quot;margin-top: 0px;&quot;&gt;&lt;font style=&quot;font-size: 12px;&quot;&gt;&lt;span style=&quot;font-family: Arial, sans-serif; color: rgb(0, 0, 0); background-color: transparent; font-weight: 400; font-style: normal; font-variant: normal; text-decoration: none; vertical-align: baseline; white-space: pre-wrap;&quot;&gt;&lt;/span&gt;&lt;span style=&quot;font-family: Arial, sans-serif; color: rgb(0, 0, 0); background-color: transparent; font-weight: 400; font-style: normal; font-variant: normal; text-decoration: none; vertical-align: baseline; white-space: pre-wrap;&quot;&gt;At Ingest time:&lt;/span&gt;&lt;/font&gt;&lt;/h1&gt;&lt;ol style=&quot;margin-top:0;margin-bottom:0;padding-inline-start:48px;&quot;&gt;&lt;li aria-level=&quot;1&quot; style=&quot;list-style-type: decimal; font-family: Arial, sans-serif; color: rgb(0, 0, 0); background-color: transparent; font-weight: 400; font-style: normal; font-variant: normal; text-decoration: none; vertical-align: baseline; white-space: pre;&quot; dir=&quot;ltr&quot;&gt;&lt;p role=&quot;presentation&quot; style=&quot;line-height:1.38;margin-top:0pt;margin-bottom:0pt;&quot; dir=&quot;ltr&quot;&gt;&lt;font&gt;&lt;span style=&quot;font-family: Arial, sans-serif; color: rgb(0, 0, 0); background-color: transparent; font-weight: 400; font-style: normal; font-variant: normal; text-decoration: none; vertical-align: baseline; white-space: pre-wrap;&quot;&gt;Converting documents into contents and summary structures for all the incoming PDF files&lt;/span&gt;&lt;/font&gt;&lt;/p&gt;&lt;/li&gt;&lt;li aria-level=&quot;1&quot; style=&quot;list-style-type: decimal; font-family: Arial, sans-serif; color: rgb(0, 0, 0); background-color: transparent; font-weight: 400; font-style: normal; font-variant: normal; text-decoration: none; vertical-align: baseline; white-space: pre;&quot; dir=&quot;ltr&quot;&gt;&lt;p role=&quot;presentation&quot; style=&quot;line-height:1.38;margin-top:0pt;margin-bottom:0pt;&quot; dir=&quot;ltr&quot;&gt;&lt;font&gt;&lt;span style=&quot;font-family: Arial, sans-serif; color: rgb(0, 0, 0); background-color: transparent; font-weight: 400; font-style: normal; font-variant: normal; text-decoration: none; vertical-align: baseline; white-space: pre-wrap;&quot;&gt;Searching semantically on the vector dataset and while generating summary passing all the chunks which were mentioned in the context array for the specific content topic&lt;/span&gt;&lt;/font&gt;&lt;/p&gt;&lt;/li&gt;&lt;/ol&gt;&lt;p style=&quot;line-height:1.38;margin-top:0pt;margin-bottom:0pt;&quot; dir=&quot;ltr&quot;&gt;&lt;font&gt;&lt;span style=&quot;font-family: Arial, sans-serif; color: rgb(0, 0, 0); background-color: transparent; font-weight: 400; font-style: normal; font-variant: normal; text-decoration: none; vertical-align: baseline; white-space: pre-wrap;&quot;&gt;Accuracy vs recency bias&lt;/span&gt;&lt;/font&gt;&lt;/p&gt;&lt;ol style=&quot;margin-top:0;margin-bottom:0;padding-inline-start:48px;&quot;&gt;&lt;li aria-level=&quot;1&quot; style=&quot;list-style-type: decimal; font-family: Arial, sans-serif; color: rgb(0, 0, 0); background-color: transparent; font-weight: 400; font-style: normal; font-variant: normal; text-decoration: none; vertical-align: baseline; white-space: pre;&quot; dir=&quot;ltr&quot;&gt;&lt;p role=&quot;presentation&quot; style=&quot;line-height:1.38;margin-top:0pt;margin-bottom:0pt;&quot; dir=&quot;ltr&quot;&gt;&lt;font&gt;&lt;span style=&quot;font-family: Arial, sans-serif; color: rgb(0, 0, 0); background-color: transparent; font-weight: 400; font-style: normal; font-variant: normal; text-decoration: none; vertical-align: baseline; white-space: pre-wrap;&quot;&gt;Query categorization: Depending on the query type determine if we need to get accurate data or recent data&lt;/span&gt;&lt;/font&gt;&lt;/p&gt;&lt;/li&gt;&lt;li aria-level=&quot;1&quot; style=&quot;list-style-type: decimal; font-family: Arial, sans-serif; color: rgb(0, 0, 0); background-color: transparent; font-weight: 400; font-style: normal; font-variant: normal; text-decoration: none; vertical-align: baseline; white-space: pre;&quot; dir=&quot;ltr&quot;&gt;&lt;p role=&quot;presentation&quot; style=&quot;line-height:1.38;margin-top:0pt;margin-bottom:0pt;&quot; dir=&quot;ltr&quot;&gt;&lt;font&gt;&lt;span style=&quot;font-family: Arial, sans-serif; color: rgb(0, 0, 0); background-color: transparent; font-weight: 400; font-style: normal; font-variant: normal; text-decoration: none; vertical-align: baseline; white-space: pre-wrap;&quot;&gt;Re-rank the Top_K array with this input and generate summary based on the bias&lt;/span&gt;&lt;/font&gt;&lt;/p&gt;&lt;/li&gt;&lt;/ol&gt;&lt;p&gt;&lt;font&gt;Query Caching: Query Cosine Matching with Threshold&lt;/font&gt;&lt;/p&gt;" style="text;html=1;whiteSpace=wrap;overflow=hidden;rounded=0;" vertex="1" parent="1">
          <mxGeometry x="812" y="364" width="464" height="386" as="geometry" />
        </mxCell>
        <mxCell id="w0o_VN7VHRVcwuZl0_9_-8" style="edgeStyle=orthogonalEdgeStyle;rounded=0;orthogonalLoop=1;jettySize=auto;html=1;entryX=0;entryY=0.5;entryDx=0;entryDy=0;" parent="1" source="w0o_VN7VHRVcwuZl0_9_-1" target="w0o_VN7VHRVcwuZl0_9_-3" edge="1">
          <mxGeometry relative="1" as="geometry" />
        </mxCell>
        <mxCell id="w0o_VN7VHRVcwuZl0_9_-9" style="edgeStyle=orthogonalEdgeStyle;rounded=0;orthogonalLoop=1;jettySize=auto;html=1;entryX=0;entryY=0.5;entryDx=0;entryDy=0;" parent="1" source="w0o_VN7VHRVcwuZl0_9_-1" target="w0o_VN7VHRVcwuZl0_9_-4" edge="1">
          <mxGeometry relative="1" as="geometry" />
        </mxCell>
        <mxCell id="w0o_VN7VHRVcwuZl0_9_-1" value="Files Dataset" style="rounded=1;whiteSpace=wrap;html=1;" parent="1" vertex="1">
          <mxGeometry x="110" y="90" width="120" height="60" as="geometry" />
        </mxCell>
        <mxCell id="w0o_VN7VHRVcwuZl0_9_-2" value="Embedding Generation" style="rounded=1;whiteSpace=wrap;html=1;" parent="1" vertex="1">
          <mxGeometry x="470" y="145" width="120" height="60" as="geometry" />
        </mxCell>
        <mxCell id="w0o_VN7VHRVcwuZl0_9_-10" style="edgeStyle=orthogonalEdgeStyle;rounded=0;orthogonalLoop=1;jettySize=auto;html=1;entryX=0;entryY=0.5;entryDx=0;entryDy=0;" parent="1" source="w0o_VN7VHRVcwuZl0_9_-3" target="w0o_VN7VHRVcwuZl0_9_-2" edge="1">
          <mxGeometry relative="1" as="geometry" />
        </mxCell>
        <mxCell id="w0o_VN7VHRVcwuZl0_9_-3" value="&lt;p&gt;&lt;font style=&quot;font-size: 11px;&quot;&gt;Text Extraction/OCR Service&lt;/font&gt;&lt;/p&gt;" style="ellipse;whiteSpace=wrap;html=1;aspect=fixed;" parent="1" vertex="1">
          <mxGeometry x="310" y="125" width="100" height="100" as="geometry" />
        </mxCell>
        <mxCell id="w0o_VN7VHRVcwuZl0_9_-15" style="edgeStyle=orthogonalEdgeStyle;rounded=0;orthogonalLoop=1;jettySize=auto;html=1;entryX=0;entryY=0.5;entryDx=0;entryDy=0;entryPerimeter=0;" parent="1" source="w0o_VN7VHRVcwuZl0_9_-4" target="w0o_VN7VHRVcwuZl0_9_-12" edge="1">
          <mxGeometry relative="1" as="geometry">
            <mxPoint x="500" y="190" as="targetPoint" />
          </mxGeometry>
        </mxCell>
        <mxCell id="w0o_VN7VHRVcwuZl0_9_-4" value="Sections and Summaries Extraction" style="ellipse;whiteSpace=wrap;html=1;aspect=fixed;" parent="1" vertex="1">
          <mxGeometry x="310" width="100" height="100" as="geometry" />
        </mxCell>
        <mxCell id="w0o_VN7VHRVcwuZl0_9_-14" style="edgeStyle=orthogonalEdgeStyle;rounded=0;orthogonalLoop=1;jettySize=auto;html=1;" parent="1" source="w0o_VN7VHRVcwuZl0_9_-6" target="w0o_VN7VHRVcwuZl0_9_-12" edge="1">
          <mxGeometry relative="1" as="geometry" />
        </mxCell>
        <mxCell id="w0o_VN7VHRVcwuZl0_9_-6" value="&lt;div&gt;Vector&lt;/div&gt;&lt;div&gt;Database&lt;/div&gt;" style="shape=cylinder3;whiteSpace=wrap;html=1;boundedLbl=1;backgroundOutline=1;size=15;" parent="1" vertex="1">
          <mxGeometry x="630" y="120" width="100" height="110" as="geometry" />
        </mxCell>
        <mxCell id="w0o_VN7VHRVcwuZl0_9_-12" value="PostgreSQL" style="shape=cylinder3;whiteSpace=wrap;html=1;boundedLbl=1;backgroundOutline=1;size=15;" parent="1" vertex="1">
          <mxGeometry x="630" y="-40" width="100" height="110" as="geometry" />
        </mxCell>
        <mxCell id="w0o_VN7VHRVcwuZl0_9_-13" style="edgeStyle=orthogonalEdgeStyle;rounded=0;orthogonalLoop=1;jettySize=auto;html=1;entryX=0;entryY=0.5;entryDx=0;entryDy=0;entryPerimeter=0;" parent="1" source="w0o_VN7VHRVcwuZl0_9_-2" target="w0o_VN7VHRVcwuZl0_9_-6" edge="1">
          <mxGeometry relative="1" as="geometry" />
        </mxCell>
        <mxCell id="w0o_VN7VHRVcwuZl0_9_-17" value="&lt;h1 style=&quot;margin-top: 0px;&quot;&gt;Files Processing Service&lt;/h1&gt;&lt;p&gt;This section will cover the database seeding with all the PDF and Data Sources which are expected to be queried by the users.&lt;/p&gt;&lt;p&gt;The extracted text is stored in JSON format and the Content and Summaries is a shortened version of the document which gives context structure for effective retrieval. If a topic spans from page 1 to page 10 in a document, instead of sending just the Top_K chunks to the LLM, we use the whole section for response generation.&lt;/p&gt;&lt;p&gt;&lt;br&gt;&lt;/p&gt;" style="text;html=1;whiteSpace=wrap;overflow=hidden;rounded=0;" parent="1" vertex="1">
          <mxGeometry x="820" y="-39" width="340" height="230" as="geometry" />
        </mxCell>
        <mxCell id="w0o_VN7VHRVcwuZl0_9_-19" style="edgeStyle=orthogonalEdgeStyle;rounded=0;orthogonalLoop=1;jettySize=auto;html=1;entryX=0;entryY=0.5;entryDx=0;entryDy=0;" parent="1" source="w0o_VN7VHRVcwuZl0_9_-18" target="w0o_VN7VHRVcwuZl0_9_-1" edge="1">
          <mxGeometry relative="1" as="geometry" />
        </mxCell>
        <mxCell id="w0o_VN7VHRVcwuZl0_9_-18" value="Data Import" style="ellipse;whiteSpace=wrap;html=1;" parent="1" vertex="1">
          <mxGeometry x="-60" y="80" width="120" height="80" as="geometry" />
        </mxCell>
        <mxCell id="w0o_VN7VHRVcwuZl0_9_-21" value="" style="edgeStyle=orthogonalEdgeStyle;rounded=0;orthogonalLoop=1;jettySize=auto;html=1;" parent="1" source="w0o_VN7VHRVcwuZl0_9_-20" target="w0o_VN7VHRVcwuZl0_9_-1" edge="1">
          <mxGeometry relative="1" as="geometry" />
        </mxCell>
        <mxCell id="w0o_VN7VHRVcwuZl0_9_-20" value="AWS S3" style="shape=cylinder3;whiteSpace=wrap;html=1;boundedLbl=1;backgroundOutline=1;size=15;" parent="1" vertex="1">
          <mxGeometry x="135" y="190" width="70" height="70" as="geometry" />
        </mxCell>
      </root>
    </mxGraphModel>
  </diagram>
  <diagram id="n0-u0VpJVhRASM23MyIv" name="Page-2">
    <mxGraphModel dx="2229" dy="1262" grid="1" gridSize="10" guides="1" tooltips="1" connect="1" arrows="1" fold="1" page="0" pageScale="1" pageWidth="850" pageHeight="1100" math="0" shadow="0">
      <root>
        <mxCell id="0" />
        <mxCell id="1" parent="0" />
        <mxCell id="4CiSmNkRQNaT4dEPN3y8-99" style="rounded=0;orthogonalLoop=1;jettySize=auto;html=1;dashed=1;fillColor=#d5e8d4;strokeColor=#82b366;" parent="1" source="4CiSmNkRQNaT4dEPN3y8-97" target="4CiSmNkRQNaT4dEPN3y8-38" edge="1">
          <mxGeometry relative="1" as="geometry" />
        </mxCell>
        <mxCell id="4CiSmNkRQNaT4dEPN3y8-1" value="Agents" style="ellipse;whiteSpace=wrap;html=1;" parent="1" vertex="1">
          <mxGeometry x="-410" y="-50" width="120" height="40" as="geometry" />
        </mxCell>
        <mxCell id="4CiSmNkRQNaT4dEPN3y8-2" value="Tools" style="rounded=1;whiteSpace=wrap;html=1;" parent="1" vertex="1">
          <mxGeometry x="-410" y="10" width="120" height="40" as="geometry" />
        </mxCell>
        <mxCell id="4CiSmNkRQNaT4dEPN3y8-3" value="&lt;div&gt;Context&lt;/div&gt;" style="shape=process;whiteSpace=wrap;html=1;backgroundOutline=1;" parent="1" vertex="1">
          <mxGeometry x="-410" y="70" width="120" height="40" as="geometry" />
        </mxCell>
        <mxCell id="4CiSmNkRQNaT4dEPN3y8-4" value="API" style="shape=hexagon;perimeter=hexagonPerimeter2;whiteSpace=wrap;html=1;fixedSize=1;" parent="1" vertex="1">
          <mxGeometry x="-410" y="130" width="120" height="40" as="geometry" />
        </mxCell>
        <mxCell id="4CiSmNkRQNaT4dEPN3y8-5" value="DB" style="shape=cylinder3;whiteSpace=wrap;html=1;boundedLbl=1;backgroundOutline=1;size=15;" parent="1" vertex="1">
          <mxGeometry x="-390" y="190" width="80" height="60" as="geometry" />
        </mxCell>
        <mxCell id="4CiSmNkRQNaT4dEPN3y8-23" style="edgeStyle=orthogonalEdgeStyle;rounded=0;orthogonalLoop=1;jettySize=auto;html=1;entryX=0.5;entryY=0;entryDx=0;entryDy=0;" parent="1" source="4CiSmNkRQNaT4dEPN3y8-6" target="4CiSmNkRQNaT4dEPN3y8-22" edge="1">
          <mxGeometry relative="1" as="geometry" />
        </mxCell>
        <mxCell id="4CiSmNkRQNaT4dEPN3y8-6" value="ChatAgent" style="ellipse;whiteSpace=wrap;html=1;" parent="1" vertex="1">
          <mxGeometry x="820" width="120" height="40" as="geometry" />
        </mxCell>
        <mxCell id="4CiSmNkRQNaT4dEPN3y8-17" style="edgeStyle=orthogonalEdgeStyle;rounded=0;orthogonalLoop=1;jettySize=auto;html=1;" parent="1" source="4CiSmNkRQNaT4dEPN3y8-7" target="4CiSmNkRQNaT4dEPN3y8-16" edge="1">
          <mxGeometry relative="1" as="geometry" />
        </mxCell>
        <mxCell id="4CiSmNkRQNaT4dEPN3y8-7" value="ModAgent" style="ellipse;whiteSpace=wrap;html=1;" parent="1" vertex="1">
          <mxGeometry x="1140" y="-40" width="120" height="40" as="geometry" />
        </mxCell>
        <mxCell id="4CiSmNkRQNaT4dEPN3y8-14" style="edgeStyle=orthogonalEdgeStyle;rounded=0;orthogonalLoop=1;jettySize=auto;html=1;" parent="1" source="4CiSmNkRQNaT4dEPN3y8-8" target="4CiSmNkRQNaT4dEPN3y8-6" edge="1">
          <mxGeometry relative="1" as="geometry" />
        </mxCell>
        <mxCell id="4CiSmNkRQNaT4dEPN3y8-8" value="UserContext" style="shape=process;whiteSpace=wrap;html=1;backgroundOutline=1;" parent="1" vertex="1">
          <mxGeometry x="730" y="-80" width="120" height="40" as="geometry" />
        </mxCell>
        <mxCell id="4CiSmNkRQNaT4dEPN3y8-11" style="edgeStyle=orthogonalEdgeStyle;rounded=0;orthogonalLoop=1;jettySize=auto;html=1;entryX=0.5;entryY=0;entryDx=0;entryDy=0;" parent="1" source="4CiSmNkRQNaT4dEPN3y8-9" target="4CiSmNkRQNaT4dEPN3y8-8" edge="1">
          <mxGeometry relative="1" as="geometry" />
        </mxCell>
        <mxCell id="4CiSmNkRQNaT4dEPN3y8-12" style="edgeStyle=orthogonalEdgeStyle;rounded=0;orthogonalLoop=1;jettySize=auto;html=1;entryX=0.5;entryY=0;entryDx=0;entryDy=0;" parent="1" source="4CiSmNkRQNaT4dEPN3y8-9" target="4CiSmNkRQNaT4dEPN3y8-10" edge="1">
          <mxGeometry relative="1" as="geometry" />
        </mxCell>
        <mxCell id="4CiSmNkRQNaT4dEPN3y8-9" value="Chat API" style="shape=hexagon;perimeter=hexagonPerimeter2;whiteSpace=wrap;html=1;fixedSize=1;" parent="1" vertex="1">
          <mxGeometry x="820" y="-170" width="120" height="40" as="geometry" />
        </mxCell>
        <mxCell id="4CiSmNkRQNaT4dEPN3y8-13" style="edgeStyle=orthogonalEdgeStyle;rounded=0;orthogonalLoop=1;jettySize=auto;html=1;entryX=0.5;entryY=0;entryDx=0;entryDy=0;" parent="1" source="4CiSmNkRQNaT4dEPN3y8-10" target="4CiSmNkRQNaT4dEPN3y8-6" edge="1">
          <mxGeometry relative="1" as="geometry" />
        </mxCell>
        <mxCell id="4CiSmNkRQNaT4dEPN3y8-10" value="OrgContext" style="shape=process;whiteSpace=wrap;html=1;backgroundOutline=1;" parent="1" vertex="1">
          <mxGeometry x="910" y="-80" width="120" height="40" as="geometry" />
        </mxCell>
        <mxCell id="4CiSmNkRQNaT4dEPN3y8-18" style="edgeStyle=orthogonalEdgeStyle;rounded=0;orthogonalLoop=1;jettySize=auto;html=1;entryX=1;entryY=0.5;entryDx=0;entryDy=0;" parent="1" source="4CiSmNkRQNaT4dEPN3y8-15" target="4CiSmNkRQNaT4dEPN3y8-16" edge="1">
          <mxGeometry relative="1" as="geometry" />
        </mxCell>
        <mxCell id="4CiSmNkRQNaT4dEPN3y8-15" value="IntentAgent" style="ellipse;whiteSpace=wrap;html=1;" parent="1" vertex="1">
          <mxGeometry x="1140" y="40" width="120" height="40" as="geometry" />
        </mxCell>
        <mxCell id="4CiSmNkRQNaT4dEPN3y8-19" style="edgeStyle=orthogonalEdgeStyle;rounded=0;orthogonalLoop=1;jettySize=auto;html=1;entryX=1;entryY=0.5;entryDx=0;entryDy=0;" parent="1" source="4CiSmNkRQNaT4dEPN3y8-16" target="4CiSmNkRQNaT4dEPN3y8-6" edge="1">
          <mxGeometry relative="1" as="geometry" />
        </mxCell>
        <mxCell id="4CiSmNkRQNaT4dEPN3y8-16" value="AgentAsTool" style="rounded=1;whiteSpace=wrap;html=1;" parent="1" vertex="1">
          <mxGeometry x="980" width="120" height="40" as="geometry" />
        </mxCell>
        <mxCell id="4CiSmNkRQNaT4dEPN3y8-21" value="Condition" style="rhombus;whiteSpace=wrap;html=1;" parent="1" vertex="1">
          <mxGeometry x="-410" y="270" width="120" height="40" as="geometry" />
        </mxCell>
        <mxCell id="4CiSmNkRQNaT4dEPN3y8-29" style="edgeStyle=orthogonalEdgeStyle;rounded=0;orthogonalLoop=1;jettySize=auto;html=1;entryX=0.5;entryY=0;entryDx=0;entryDy=0;" parent="1" source="4CiSmNkRQNaT4dEPN3y8-22" target="4CiSmNkRQNaT4dEPN3y8-25" edge="1">
          <mxGeometry relative="1" as="geometry" />
        </mxCell>
        <mxCell id="4CiSmNkRQNaT4dEPN3y8-30" style="edgeStyle=orthogonalEdgeStyle;rounded=0;orthogonalLoop=1;jettySize=auto;html=1;entryX=0.5;entryY=0;entryDx=0;entryDy=0;" parent="1" source="4CiSmNkRQNaT4dEPN3y8-22" target="4CiSmNkRQNaT4dEPN3y8-26" edge="1">
          <mxGeometry relative="1" as="geometry" />
        </mxCell>
        <mxCell id="4CiSmNkRQNaT4dEPN3y8-31" style="edgeStyle=orthogonalEdgeStyle;rounded=0;orthogonalLoop=1;jettySize=auto;html=1;entryX=0.5;entryY=0;entryDx=0;entryDy=0;" parent="1" source="4CiSmNkRQNaT4dEPN3y8-22" target="4CiSmNkRQNaT4dEPN3y8-28" edge="1">
          <mxGeometry relative="1" as="geometry" />
        </mxCell>
        <mxCell id="4CiSmNkRQNaT4dEPN3y8-22" value="Intent" style="rhombus;whiteSpace=wrap;html=1;" parent="1" vertex="1">
          <mxGeometry x="820" y="70" width="120" height="40" as="geometry" />
        </mxCell>
        <mxCell id="4CiSmNkRQNaT4dEPN3y8-33" style="edgeStyle=orthogonalEdgeStyle;rounded=0;orthogonalLoop=1;jettySize=auto;html=1;entryX=1;entryY=0.5;entryDx=0;entryDy=0;" parent="1" source="4CiSmNkRQNaT4dEPN3y8-25" target="4CiSmNkRQNaT4dEPN3y8-32" edge="1">
          <mxGeometry relative="1" as="geometry" />
        </mxCell>
        <mxCell id="4CiSmNkRQNaT4dEPN3y8-34" value="resp" style="edgeLabel;html=1;align=center;verticalAlign=middle;resizable=0;points=[];" parent="4CiSmNkRQNaT4dEPN3y8-33" vertex="1" connectable="0">
          <mxGeometry x="-0.2876" relative="1" as="geometry">
            <mxPoint x="-2" as="offset" />
          </mxGeometry>
        </mxCell>
        <mxCell id="4CiSmNkRQNaT4dEPN3y8-25" value="Greeting" style="rounded=0;whiteSpace=wrap;html=1;" parent="1" vertex="1">
          <mxGeometry x="740" y="150" width="80" height="40" as="geometry" />
        </mxCell>
        <mxCell id="4CiSmNkRQNaT4dEPN3y8-36" style="edgeStyle=orthogonalEdgeStyle;rounded=0;orthogonalLoop=1;jettySize=auto;html=1;entryX=0.5;entryY=0;entryDx=0;entryDy=0;" parent="1" source="4CiSmNkRQNaT4dEPN3y8-26" target="4CiSmNkRQNaT4dEPN3y8-35" edge="1">
          <mxGeometry relative="1" as="geometry" />
        </mxCell>
        <mxCell id="4CiSmNkRQNaT4dEPN3y8-26" value="Search" style="rounded=0;whiteSpace=wrap;html=1;" parent="1" vertex="1">
          <mxGeometry x="840" y="150" width="80" height="40" as="geometry" />
        </mxCell>
        <mxCell id="4CiSmNkRQNaT4dEPN3y8-53" style="edgeStyle=orthogonalEdgeStyle;rounded=0;orthogonalLoop=1;jettySize=auto;html=1;" parent="1" source="4CiSmNkRQNaT4dEPN3y8-28" target="4CiSmNkRQNaT4dEPN3y8-35" edge="1">
          <mxGeometry relative="1" as="geometry" />
        </mxCell>
        <mxCell id="4CiSmNkRQNaT4dEPN3y8-28" value="Action" style="rounded=0;whiteSpace=wrap;html=1;" parent="1" vertex="1">
          <mxGeometry x="940" y="150" width="80" height="40" as="geometry" />
        </mxCell>
        <mxCell id="4CiSmNkRQNaT4dEPN3y8-32" value="Chat API" style="shape=hexagon;perimeter=hexagonPerimeter2;whiteSpace=wrap;html=1;fixedSize=1;" parent="1" vertex="1">
          <mxGeometry x="560" y="150" width="120" height="40" as="geometry" />
        </mxCell>
        <mxCell id="4CiSmNkRQNaT4dEPN3y8-55" style="edgeStyle=orthogonalEdgeStyle;rounded=0;orthogonalLoop=1;jettySize=auto;html=1;entryX=0.5;entryY=0;entryDx=0;entryDy=0;" parent="1" source="4CiSmNkRQNaT4dEPN3y8-35" target="4CiSmNkRQNaT4dEPN3y8-54" edge="1">
          <mxGeometry relative="1" as="geometry" />
        </mxCell>
        <mxCell id="4CiSmNkRQNaT4dEPN3y8-59" style="edgeStyle=orthogonalEdgeStyle;rounded=0;orthogonalLoop=1;jettySize=auto;html=1;entryX=1;entryY=0.5;entryDx=0;entryDy=0;" parent="1" source="4CiSmNkRQNaT4dEPN3y8-35" target="4CiSmNkRQNaT4dEPN3y8-58" edge="1">
          <mxGeometry relative="1" as="geometry" />
        </mxCell>
        <mxCell id="4CiSmNkRQNaT4dEPN3y8-60" value="resp" style="edgeLabel;html=1;align=center;verticalAlign=middle;resizable=0;points=[];" parent="4CiSmNkRQNaT4dEPN3y8-59" vertex="1" connectable="0">
          <mxGeometry x="-0.0368" y="2" relative="1" as="geometry">
            <mxPoint as="offset" />
          </mxGeometry>
        </mxCell>
        <mxCell id="4CiSmNkRQNaT4dEPN3y8-35" value="PlannerAgent" style="ellipse;whiteSpace=wrap;html=1;" parent="1" vertex="1">
          <mxGeometry x="880" y="240" width="120" height="40" as="geometry" />
        </mxCell>
        <mxCell id="4CiSmNkRQNaT4dEPN3y8-41" style="edgeStyle=orthogonalEdgeStyle;rounded=0;orthogonalLoop=1;jettySize=auto;html=1;entryX=1;entryY=0.5;entryDx=0;entryDy=0;" parent="1" source="4CiSmNkRQNaT4dEPN3y8-38" target="4CiSmNkRQNaT4dEPN3y8-40" edge="1">
          <mxGeometry relative="1" as="geometry" />
        </mxCell>
        <mxCell id="4CiSmNkRQNaT4dEPN3y8-38" value="DataAgent" style="ellipse;whiteSpace=wrap;html=1;" parent="1" vertex="1">
          <mxGeometry x="805" y="320" width="120" height="40" as="geometry" />
        </mxCell>
        <mxCell id="4CiSmNkRQNaT4dEPN3y8-40" value="RetrievalTool" style="rounded=1;whiteSpace=wrap;html=1;" parent="1" vertex="1">
          <mxGeometry x="635" y="320" width="120" height="40" as="geometry" />
        </mxCell>
        <mxCell id="4CiSmNkRQNaT4dEPN3y8-85" style="edgeStyle=orthogonalEdgeStyle;rounded=0;orthogonalLoop=1;jettySize=auto;html=1;entryX=0.5;entryY=0;entryDx=0;entryDy=0;" parent="1" source="4CiSmNkRQNaT4dEPN3y8-42" target="4CiSmNkRQNaT4dEPN3y8-81" edge="1">
          <mxGeometry relative="1" as="geometry" />
        </mxCell>
        <mxCell id="4CiSmNkRQNaT4dEPN3y8-86" style="edgeStyle=orthogonalEdgeStyle;rounded=0;orthogonalLoop=1;jettySize=auto;html=1;entryX=0.5;entryY=0;entryDx=0;entryDy=0;" parent="1" source="4CiSmNkRQNaT4dEPN3y8-42" target="4CiSmNkRQNaT4dEPN3y8-82" edge="1">
          <mxGeometry relative="1" as="geometry" />
        </mxCell>
        <mxCell id="4CiSmNkRQNaT4dEPN3y8-87" value="Indices" style="edgeLabel;html=1;align=center;verticalAlign=middle;resizable=0;points=[];" parent="4CiSmNkRQNaT4dEPN3y8-86" vertex="1" connectable="0">
          <mxGeometry x="-0.5608" y="-2" relative="1" as="geometry">
            <mxPoint as="offset" />
          </mxGeometry>
        </mxCell>
        <mxCell id="ibw63K7zQmfJvFpLZwmV-2" style="edgeStyle=orthogonalEdgeStyle;rounded=0;orthogonalLoop=1;jettySize=auto;html=1;" edge="1" parent="1" source="4CiSmNkRQNaT4dEPN3y8-42" target="ibw63K7zQmfJvFpLZwmV-1">
          <mxGeometry relative="1" as="geometry" />
        </mxCell>
        <mxCell id="4CiSmNkRQNaT4dEPN3y8-42" value="OpenSearch" style="shape=cylinder3;whiteSpace=wrap;html=1;boundedLbl=1;backgroundOutline=1;size=15;" parent="1" vertex="1">
          <mxGeometry x="655" y="420" width="80" height="60" as="geometry" />
        </mxCell>
        <mxCell id="4CiSmNkRQNaT4dEPN3y8-44" style="edgeStyle=orthogonalEdgeStyle;rounded=0;orthogonalLoop=1;jettySize=auto;html=1;entryX=0.5;entryY=0;entryDx=0;entryDy=0;entryPerimeter=0;" parent="1" source="4CiSmNkRQNaT4dEPN3y8-40" target="4CiSmNkRQNaT4dEPN3y8-42" edge="1">
          <mxGeometry relative="1" as="geometry" />
        </mxCell>
        <mxCell id="4CiSmNkRQNaT4dEPN3y8-45" value="&lt;div style=&quot;line-height: 100%;&quot;&gt;&lt;div align=&quot;left&quot;&gt;&lt;font style=&quot;font-size: 10px; line-height: 100%;&quot;&gt;Filters:&lt;/font&gt;&lt;/div&gt;&lt;div align=&quot;left&quot;&gt;&lt;font style=&quot;font-size: 10px; line-height: 100%;&quot;&gt;Recency&lt;/font&gt;&lt;/div&gt;&lt;div align=&quot;left&quot;&gt;&lt;font style=&quot;font-size: 10px; line-height: 100%;&quot;&gt;Targeting&lt;/font&gt;&lt;/div&gt;&lt;/div&gt;" style="text;html=1;align=left;verticalAlign=middle;whiteSpace=wrap;rounded=0;" parent="1" vertex="1">
          <mxGeometry x="705" y="370" width="70" height="40" as="geometry" />
        </mxCell>
        <mxCell id="4CiSmNkRQNaT4dEPN3y8-62" style="edgeStyle=orthogonalEdgeStyle;rounded=0;orthogonalLoop=1;jettySize=auto;html=1;entryX=0;entryY=0.5;entryDx=0;entryDy=0;" parent="1" source="4CiSmNkRQNaT4dEPN3y8-54" target="4CiSmNkRQNaT4dEPN3y8-57" edge="1">
          <mxGeometry relative="1" as="geometry" />
        </mxCell>
        <mxCell id="4CiSmNkRQNaT4dEPN3y8-63" style="edgeStyle=orthogonalEdgeStyle;rounded=0;orthogonalLoop=1;jettySize=auto;html=1;entryX=0;entryY=0.5;entryDx=0;entryDy=0;" parent="1" source="4CiSmNkRQNaT4dEPN3y8-54" target="4CiSmNkRQNaT4dEPN3y8-61" edge="1">
          <mxGeometry relative="1" as="geometry">
            <mxPoint x="1130" y="370" as="targetPoint" />
          </mxGeometry>
        </mxCell>
        <mxCell id="4CiSmNkRQNaT4dEPN3y8-54" value="HrmsAgent" style="ellipse;whiteSpace=wrap;html=1;" parent="1" vertex="1">
          <mxGeometry x="960" y="320" width="120" height="40" as="geometry" />
        </mxCell>
        <mxCell id="4CiSmNkRQNaT4dEPN3y8-56" style="edgeStyle=orthogonalEdgeStyle;rounded=0;orthogonalLoop=1;jettySize=auto;html=1;entryX=0.5;entryY=0;entryDx=0;entryDy=0;" parent="1" source="4CiSmNkRQNaT4dEPN3y8-35" target="4CiSmNkRQNaT4dEPN3y8-38" edge="1">
          <mxGeometry relative="1" as="geometry" />
        </mxCell>
        <mxCell id="4CiSmNkRQNaT4dEPN3y8-57" value="LeaveBalanceTool" style="rounded=1;whiteSpace=wrap;html=1;" parent="1" vertex="1">
          <mxGeometry x="1140" y="295" width="120" height="40" as="geometry" />
        </mxCell>
        <mxCell id="4CiSmNkRQNaT4dEPN3y8-58" value="Chat API" style="shape=hexagon;perimeter=hexagonPerimeter2;whiteSpace=wrap;html=1;fixedSize=1;" parent="1" vertex="1">
          <mxGeometry x="700" y="240" width="120" height="40" as="geometry" />
        </mxCell>
        <mxCell id="4CiSmNkRQNaT4dEPN3y8-61" value="LeaveApplicaitonTool" style="rounded=1;whiteSpace=wrap;html=1;" parent="1" vertex="1">
          <mxGeometry x="1140" y="345" width="120" height="40" as="geometry" />
        </mxCell>
        <mxCell id="4CiSmNkRQNaT4dEPN3y8-70" style="edgeStyle=orthogonalEdgeStyle;rounded=0;orthogonalLoop=1;jettySize=auto;html=1;entryX=0.5;entryY=0;entryDx=0;entryDy=0;" parent="1" source="4CiSmNkRQNaT4dEPN3y8-64" target="4CiSmNkRQNaT4dEPN3y8-66" edge="1">
          <mxGeometry relative="1" as="geometry" />
        </mxCell>
        <mxCell id="4CiSmNkRQNaT4dEPN3y8-64" value="IngestAPI" style="shape=hexagon;perimeter=hexagonPerimeter2;whiteSpace=wrap;html=1;fixedSize=1;" parent="1" vertex="1">
          <mxGeometry x="350" y="150" width="120" height="40" as="geometry" />
        </mxCell>
        <mxCell id="4CiSmNkRQNaT4dEPN3y8-71" style="edgeStyle=orthogonalEdgeStyle;rounded=0;orthogonalLoop=1;jettySize=auto;html=1;entryX=0.5;entryY=0;entryDx=0;entryDy=0;" parent="1" source="4CiSmNkRQNaT4dEPN3y8-66" target="4CiSmNkRQNaT4dEPN3y8-69" edge="1">
          <mxGeometry relative="1" as="geometry" />
        </mxCell>
        <mxCell id="4CiSmNkRQNaT4dEPN3y8-66" value="&lt;div&gt;Ingest Backend&lt;/div&gt;" style="rounded=1;whiteSpace=wrap;html=1;" parent="1" vertex="1">
          <mxGeometry x="350" y="250" width="120" height="40" as="geometry" />
        </mxCell>
        <mxCell id="4CiSmNkRQNaT4dEPN3y8-68" value="Services" style="ellipse;whiteSpace=wrap;html=1;aspect=fixed;" parent="1" vertex="1">
          <mxGeometry x="-390" y="345" width="80" height="80" as="geometry" />
        </mxCell>
        <mxCell id="4CiSmNkRQNaT4dEPN3y8-69" value="&lt;div&gt;&lt;font style=&quot;font-size: 10px;&quot;&gt;OpenAI&lt;/font&gt;&lt;/div&gt;&lt;div&gt;&lt;font style=&quot;font-size: 10px; line-height: 100%;&quot;&gt;Embedding&lt;/font&gt;&lt;font style=&quot;font-size: 10px;&quot;&gt;s&lt;/font&gt;&lt;/div&gt;" style="ellipse;whiteSpace=wrap;html=1;aspect=fixed;" parent="1" vertex="1">
          <mxGeometry x="370" y="330" width="80" height="80" as="geometry" />
        </mxCell>
        <mxCell id="4CiSmNkRQNaT4dEPN3y8-72" style="edgeStyle=orthogonalEdgeStyle;rounded=0;orthogonalLoop=1;jettySize=auto;html=1;entryX=-0.001;entryY=0.568;entryDx=0;entryDy=0;entryPerimeter=0;" parent="1" source="4CiSmNkRQNaT4dEPN3y8-66" target="4CiSmNkRQNaT4dEPN3y8-42" edge="1">
          <mxGeometry relative="1" as="geometry" />
        </mxCell>
        <mxCell id="4CiSmNkRQNaT4dEPN3y8-74" style="edgeStyle=orthogonalEdgeStyle;rounded=0;orthogonalLoop=1;jettySize=auto;html=1;entryX=0;entryY=0.5;entryDx=0;entryDy=0;" parent="1" source="4CiSmNkRQNaT4dEPN3y8-73" target="4CiSmNkRQNaT4dEPN3y8-66" edge="1">
          <mxGeometry relative="1" as="geometry" />
        </mxCell>
        <mxCell id="4CiSmNkRQNaT4dEPN3y8-73" value="MySQL" style="shape=cylinder3;whiteSpace=wrap;html=1;boundedLbl=1;backgroundOutline=1;size=15;" parent="1" vertex="1">
          <mxGeometry x="220" y="200" width="80" height="60" as="geometry" />
        </mxCell>
        <mxCell id="4CiSmNkRQNaT4dEPN3y8-76" style="edgeStyle=orthogonalEdgeStyle;rounded=0;orthogonalLoop=1;jettySize=auto;html=1;entryX=0;entryY=0.5;entryDx=0;entryDy=0;" parent="1" source="4CiSmNkRQNaT4dEPN3y8-75" target="4CiSmNkRQNaT4dEPN3y8-66" edge="1">
          <mxGeometry relative="1" as="geometry" />
        </mxCell>
        <mxCell id="4CiSmNkRQNaT4dEPN3y8-75" value="S3" style="shape=cylinder3;whiteSpace=wrap;html=1;boundedLbl=1;backgroundOutline=1;size=15;" parent="1" vertex="1">
          <mxGeometry x="220" y="280" width="80" height="60" as="geometry" />
        </mxCell>
        <mxCell id="4CiSmNkRQNaT4dEPN3y8-95" style="edgeStyle=orthogonalEdgeStyle;rounded=0;orthogonalLoop=1;jettySize=auto;html=1;entryX=0.5;entryY=0;entryDx=0;entryDy=0;" parent="1" source="4CiSmNkRQNaT4dEPN3y8-77" target="4CiSmNkRQNaT4dEPN3y8-79" edge="1">
          <mxGeometry relative="1" as="geometry" />
        </mxCell>
        <mxCell id="4CiSmNkRQNaT4dEPN3y8-77" value="ContentAPI" style="shape=hexagon;perimeter=hexagonPerimeter2;whiteSpace=wrap;html=1;fixedSize=1;" parent="1" vertex="1">
          <mxGeometry x="1520" y="-170" width="120" height="40" as="geometry" />
        </mxCell>
        <mxCell id="4CiSmNkRQNaT4dEPN3y8-91" style="edgeStyle=orthogonalEdgeStyle;rounded=0;orthogonalLoop=1;jettySize=auto;html=1;entryX=0.5;entryY=0;entryDx=0;entryDy=0;exitX=0.5;exitY=1;exitDx=0;exitDy=0;" parent="1" source="4CiSmNkRQNaT4dEPN3y8-78" target="4CiSmNkRQNaT4dEPN3y8-88" edge="1">
          <mxGeometry relative="1" as="geometry" />
        </mxCell>
        <mxCell id="4CiSmNkRQNaT4dEPN3y8-92" style="edgeStyle=orthogonalEdgeStyle;rounded=0;orthogonalLoop=1;jettySize=auto;html=1;entryX=0.5;entryY=0;entryDx=0;entryDy=0;" parent="1" source="4CiSmNkRQNaT4dEPN3y8-78" target="4CiSmNkRQNaT4dEPN3y8-89" edge="1">
          <mxGeometry relative="1" as="geometry" />
        </mxCell>
        <mxCell id="4CiSmNkRQNaT4dEPN3y8-93" style="edgeStyle=orthogonalEdgeStyle;rounded=0;orthogonalLoop=1;jettySize=auto;html=1;entryX=0.5;entryY=0;entryDx=0;entryDy=0;exitX=0.5;exitY=1;exitDx=0;exitDy=0;" parent="1" source="4CiSmNkRQNaT4dEPN3y8-78" target="4CiSmNkRQNaT4dEPN3y8-90" edge="1">
          <mxGeometry relative="1" as="geometry" />
        </mxCell>
        <mxCell id="4CiSmNkRQNaT4dEPN3y8-98" style="edgeStyle=orthogonalEdgeStyle;rounded=0;orthogonalLoop=1;jettySize=auto;html=1;entryX=1;entryY=0.5;entryDx=0;entryDy=0;" parent="1" source="4CiSmNkRQNaT4dEPN3y8-78" target="4CiSmNkRQNaT4dEPN3y8-97" edge="1">
          <mxGeometry relative="1" as="geometry" />
        </mxCell>
        <mxCell id="4CiSmNkRQNaT4dEPN3y8-78" value="ContentPlanner" style="ellipse;whiteSpace=wrap;html=1;" parent="1" vertex="1">
          <mxGeometry x="1520" y="-20" width="120" height="40" as="geometry" />
        </mxCell>
        <mxCell id="4CiSmNkRQNaT4dEPN3y8-96" style="edgeStyle=orthogonalEdgeStyle;rounded=0;orthogonalLoop=1;jettySize=auto;html=1;entryX=0.5;entryY=0;entryDx=0;entryDy=0;" parent="1" source="4CiSmNkRQNaT4dEPN3y8-79" target="4CiSmNkRQNaT4dEPN3y8-78" edge="1">
          <mxGeometry relative="1" as="geometry" />
        </mxCell>
        <mxCell id="4CiSmNkRQNaT4dEPN3y8-79" value="OrgContext" style="shape=process;whiteSpace=wrap;html=1;backgroundOutline=1;" parent="1" vertex="1">
          <mxGeometry x="1520" y="-90" width="120" height="40" as="geometry" />
        </mxCell>
        <mxCell id="4CiSmNkRQNaT4dEPN3y8-81" value="&lt;div&gt;- Socials&lt;/div&gt;&lt;div&gt;- Policies&lt;/div&gt;&lt;div&gt;- Documents&lt;/div&gt;&lt;div&gt;- Web&lt;/div&gt;&lt;div&gt;- Integrations&lt;/div&gt;" style="text;html=1;align=left;verticalAlign=middle;whiteSpace=wrap;rounded=0;strokeColor=default;glass=0;shadow=0;" parent="1" vertex="1">
          <mxGeometry x="600" y="520" width="90" height="80" as="geometry" />
        </mxCell>
        <mxCell id="4CiSmNkRQNaT4dEPN3y8-82" value="&lt;div&gt;- Queries&lt;/div&gt;&lt;div&gt;- Logs&lt;/div&gt;&lt;div&gt;- Tool Calls&lt;/div&gt;" style="text;html=1;align=left;verticalAlign=middle;whiteSpace=wrap;rounded=0;fillColor=none;strokeColor=default;glass=0;shadow=0;" parent="1" vertex="1">
          <mxGeometry x="705" y="520" width="70" height="50" as="geometry" />
        </mxCell>
        <mxCell id="4CiSmNkRQNaT4dEPN3y8-88" value="ImageGenerator" style="ellipse;whiteSpace=wrap;html=1;" parent="1" vertex="1">
          <mxGeometry x="1380" y="80" width="120" height="40" as="geometry" />
        </mxCell>
        <mxCell id="4CiSmNkRQNaT4dEPN3y8-89" value="TextGenerator" style="ellipse;whiteSpace=wrap;html=1;" parent="1" vertex="1">
          <mxGeometry x="1520" y="80" width="120" height="40" as="geometry" />
        </mxCell>
        <mxCell id="4CiSmNkRQNaT4dEPN3y8-90" value="VideoGenerator" style="ellipse;whiteSpace=wrap;html=1;" parent="1" vertex="1">
          <mxGeometry x="1660" y="80" width="120" height="40" as="geometry" />
        </mxCell>
        <mxCell id="4CiSmNkRQNaT4dEPN3y8-97" value="DataAgent" style="ellipse;whiteSpace=wrap;html=1;" parent="1" vertex="1">
          <mxGeometry x="1340" y="-20" width="120" height="40" as="geometry" />
        </mxCell>
        <mxCell id="ibw63K7zQmfJvFpLZwmV-1" value="LogsAPI" style="shape=hexagon;perimeter=hexagonPerimeter2;whiteSpace=wrap;html=1;fixedSize=1;" vertex="1" parent="1">
          <mxGeometry x="850" y="430" width="120" height="40" as="geometry" />
        </mxCell>
        <mxCell id="ibw63K7zQmfJvFpLZwmV-3" value="&lt;div&gt;/health&lt;/div&gt;&lt;div&gt;/queries&lt;/div&gt;&lt;div&gt;/logs&lt;/div&gt;&lt;div&gt;/tool-calls&lt;/div&gt;&lt;div&gt;/ingest-history&lt;/div&gt;&lt;div&gt;/content-history&lt;/div&gt;" style="text;html=1;align=left;verticalAlign=middle;whiteSpace=wrap;rounded=0;fillColor=none;strokeColor=none;glass=0;shadow=0;" vertex="1" parent="1">
          <mxGeometry x="865" y="490" width="95" height="90" as="geometry" />
        </mxCell>
        <mxCell id="ibw63K7zQmfJvFpLZwmV-5" value="&lt;div&gt;/health&lt;/div&gt;&lt;div&gt;/summary&lt;/div&gt;&lt;div&gt;/textgen&lt;/div&gt;&lt;div&gt;/imggen&lt;/div&gt;&lt;div&gt;/vidgen&lt;/div&gt;" style="text;html=1;align=left;verticalAlign=middle;whiteSpace=wrap;rounded=0;fillColor=none;strokeColor=none;glass=0;shadow=0;" vertex="1" parent="1">
          <mxGeometry x="1550" y="-270" width="95" height="90" as="geometry" />
        </mxCell>
      </root>
    </mxGraphModel>
  </diagram>
</mxfile>
